# xmcd
# Track frame offsets:
# 150
# 11850
# 28360
# 43513
# 59688
# 78164
# 96165
# 112701
# 128596
# 152306
#
# Disc length: 2281 seconds
# Revision: 0
# Processed by: cddbd v1.5.1PL2 Copyright (c) Steve Scherf et al.
# Submitted via: VisiTrax 2.10.0.248 - For more info visit www.synapsa.com
#
DISCID=7208e70a
DTITLE=Tracy Lawrence - Tracy Lawrence Live
DYEAR=1900
DGENRE=Country
TTITLE0=Renegades Rebels And Rogues
TTITLE1=Runnin Behind
TTITLE2=Somebody Paints The Wall
TTITLE3=I See It Now
TTITLE4=Today's Lonely Fool
TTITLE5=I Threw The Rest Away
TTITLE6=Sticks And Stones
TTITLE7=Alibis
TTITLE8=Can't Break It To My Heart
TTITLE9=If The Good Die Young
EXTD=
EXTT0=
EXTT1=
EXTT2=
EXTT3=
EXTT4=
EXTT5=
EXTT6=
EXTT7=
EXTT8=
EXTT9=
PLAYORDER=
